<?xml version="1.0" ?><svg enable-background="new 0 0 64 64" height="64px" id="Layer_1" version="1.1" viewBox="0 0 64 64" width="64px" xml:space="preserve" xmlns="http://www.w3.org/2000/svg" xmlns:xlink="http://www.w3.org/1999/xlink"><circle cx="32" cy="32" fill="#77B3D4" r="32"/><g><path d="M32,55.114c-0.385,0-0.751-0.146-1.031-0.411L8,32l4-2l20,21.549l22.567-20.663   c0.176,0.222-0.177-2,0-1.614C54.819,29.824,55.686,31.553,56,32L33.03,54.704C32.751,54.968,32.385,55.114,32,55.114z" fill="#231F20" opacity="0.2"/></g><g><path d="M32,53.5c-0.385,0-0.751-0.146-1.031-0.411L8,32l4.29-0.026L32,49.935l22.567-20.663   c0.176,0.222,0.43,0.777,0.607,1.163C55.427,30.987,55.686,31.553,56,32L33.03,53.09C32.751,53.354,32.385,53.5,32,53.5z" fill="#4F5D73"/></g><g opacity="0.2"><path d="M46,31c-0.068-0.508-0.7-0.839-1-1c-0.221-0.119-1.25,2-1.498,2c-0.555,0-0.621,0.54-0.883,1.027L32,51.755   L21.381,33.027C21.119,32.54,21.555,30,21,30c-0.249,0-0.779-1.119-1-1c-0.299,0.161-0.932-0.508-1,0c-0.069,0.51-3.209-0.391-3,0   l13.95,25.316c1.399-0.285,2.844-0.306,4.292-0.336L47,31C47.209,30.609,46.069,31.51,46,31z" fill="#231F20"/></g><g><path d="M32,53.5c-0.554,0-1.06-0.303-1.322-0.791L19,32c-0.209-0.391,0.143-1.187,0.212-1.697   c0.068-0.508,0.279-0.891,0.579-1.052c0.221-0.119,0.459-0.179,0.708-0.179c0.555,0,0.621,0.54,0.883,1.027L32,48.828L42.619,30.1   c0.262-0.488,0.329-1.027,0.883-1.027c0.249,0,0.486,0.06,0.707,0.179c0.3,0.161,0.511,0.544,0.579,1.052   C44.857,30.813,45.209,31.609,45,32L33.322,52.709C33.06,53.197,32.554,53.5,32,53.5z" fill="#4F5D73"/></g><g opacity="0.2"><g><path d="M45,34h8.822L56,32c-1.016-12.319-11.419-22-24-22C39.18,10,45,20.745,45,34z" fill="#231F20"/></g><g><path d="M32,10C19.574,10,9.229,19.898,8,32l2.178,2H19C19,20.745,24.82,10,32,10z" fill="#231F20"/></g><g><path d="M19,34h26c0-13.255-5.82-24-13-24S19,20.745,19,34z" fill="#231F20"/></g></g><g><g><path d="M45,32h11C56,18.745,45.255,8,32,8C39.18,8,45,18.745,45,32z" fill="#C75C5C"/></g><g><path d="M32,8C18.745,8,8,18.745,8,32h11C19,18.745,24.82,8,32,8z" fill="#C75C5C"/></g><g><path d="M19,32h26c0-13.255-5.82-24-13-24S19,18.745,19,32z" fill="#FFFFFF"/></g></g><g opacity="0.2"><circle cx="32" cy="54" fill="#231F20" r="4"/></g><g><circle cx="32" cy="52" fill="#E0E0D1" r="4"/></g></svg>